<svg width="462" height="94" viewBox="0 0 462 94" fill="none" xmlns="http://www.w3.org/2000/svg">
<path d="M46.632 4.19976L26.984 48.9998H20.648L0.936035 4.19976H7.84804L23.976 40.9998L40.232 4.19976H46.632Z" fill="white"/>
<path d="M68.2485 14.7598C72.5579 14.7598 75.9712 16.0184 78.4885 18.5358C81.0485 21.0104 82.3285 24.6584 82.3285 29.4798V48.9998H76.1845V30.1838C76.1845 26.8984 75.3952 24.4238 73.8165 22.7598C72.2379 21.0958 69.9765 20.2638 67.0325 20.2638C63.7045 20.2638 61.0805 21.2451 59.1605 23.2078C57.2405 25.1278 56.2805 27.9011 56.2805 31.5278V48.9998H50.1365V15.0798H56.0245V20.1998C57.2619 18.4504 58.9259 17.1064 61.0165 16.1678C63.1499 15.2291 65.5605 14.7598 68.2485 14.7598Z" fill="white"/>
<path d="M125.887 1.51176V48.9998H119.999V43.6238C118.633 45.5011 116.905 46.9304 114.815 47.9118C112.724 48.8931 110.42 49.3838 107.903 49.3838C104.617 49.3838 101.673 48.6584 99.0705 47.2078C96.4679 45.7571 94.4199 43.7304 92.9265 41.1278C91.4759 38.4824 90.7505 35.4531 90.7505 32.0398C90.7505 28.6264 91.4759 25.6184 92.9265 23.0158C94.4199 20.4131 96.4679 18.3864 99.0705 16.9358C101.673 15.4851 104.617 14.7598 107.903 14.7598C110.335 14.7598 112.575 15.2291 114.623 16.1678C116.671 17.0638 118.377 18.4078 119.743 20.1998V1.51176H125.887ZM108.415 44.0078C110.548 44.0078 112.489 43.5171 114.239 42.5358C115.988 41.5118 117.353 40.1038 118.335 38.3118C119.316 36.4771 119.807 34.3864 119.807 32.0398C119.807 29.6931 119.316 27.6238 118.335 25.8318C117.353 23.9971 115.988 22.5891 114.239 21.6078C112.489 20.6264 110.548 20.1358 108.415 20.1358C106.239 20.1358 104.276 20.6264 102.527 21.6078C100.82 22.5891 99.4545 23.9971 98.4305 25.8318C97.4492 27.6238 96.9585 29.6931 96.9585 32.0398C96.9585 34.3864 97.4492 36.4771 98.4305 38.3118C99.4545 40.1038 100.82 41.5118 102.527 42.5358C104.276 43.5171 106.239 44.0078 108.415 44.0078Z" fill="white"/>
<path d="M143.4 20.7758C144.466 18.8131 146.045 17.3198 148.136 16.2958C150.226 15.2718 152.765 14.7598 155.752 14.7598V20.7118C155.41 20.6691 154.941 20.6478 154.344 20.6478C151.016 20.6478 148.392 21.6504 146.472 23.6558C144.594 25.6184 143.656 28.4344 143.656 32.1038V48.9998H137.512V15.0798H143.4V20.7758Z" fill="white"/>
<path d="M193.668 32.2318C193.668 32.7011 193.625 33.3198 193.54 34.0878H166.02C166.404 37.0744 167.705 39.4851 169.924 41.3198C172.185 43.1118 174.98 44.0078 178.308 44.0078C182.361 44.0078 185.625 42.6424 188.1 39.9118L191.492 43.8798C189.956 45.6718 188.036 47.0371 185.732 47.9758C183.47 48.9144 180.932 49.3838 178.116 49.3838C174.532 49.3838 171.353 48.6584 168.58 47.2078C165.806 45.7144 163.652 43.6451 162.116 40.9998C160.622 38.3544 159.876 35.3678 159.876 32.0398C159.876 28.7544 160.601 25.7891 162.052 23.1438C163.545 20.4984 165.572 18.4504 168.132 16.9998C170.734 15.5064 173.657 14.7598 176.9 14.7598C180.142 14.7598 183.022 15.5064 185.54 16.9998C188.1 18.4504 190.084 20.4984 191.492 23.1438C192.942 25.7891 193.668 28.8184 193.668 32.2318ZM176.9 19.9438C173.956 19.9438 171.481 20.8398 169.476 22.6318C167.513 24.4238 166.361 26.7704 166.02 29.6718H187.78C187.438 26.8131 186.265 24.4878 184.26 22.6958C182.297 20.8611 179.844 19.9438 176.9 19.9438Z" fill="white"/>
<path d="M252.902 15.0798L240.23 48.9998H234.342L224.55 23.2718L214.63 48.9998H208.742L196.134 15.0798H201.958L211.814 42.0878L222.054 15.0798H227.238L237.286 42.2158L247.398 15.0798H252.902Z" fill="white"/>
<path d="M272.651 49.5118C269.28 49.5118 266.016 48.9998 262.859 47.9758C259.744 46.9091 257.291 45.5438 255.499 43.8798L257.867 38.8878C259.574 40.4238 261.75 41.6824 264.395 42.6638C267.083 43.6024 269.835 44.0718 272.651 44.0718C276.363 44.0718 279.136 43.4531 280.971 42.2158C282.806 40.9358 283.723 39.2504 283.723 37.1598C283.723 35.6238 283.211 34.3864 282.187 33.4478C281.206 32.4664 279.968 31.7198 278.475 31.2078C277.024 30.6958 274.955 30.1198 272.267 29.4798C268.896 28.6691 266.166 27.8584 264.075 27.0478C262.027 26.2371 260.256 24.9998 258.763 23.3358C257.312 21.6291 256.587 19.3464 256.587 16.4878C256.587 14.0984 257.206 11.9438 258.443 10.0238C259.723 8.10376 261.643 6.56776 264.203 5.41576C266.763 4.26376 269.942 3.68776 273.739 3.68776C276.384 3.68776 278.987 4.02909 281.547 4.71176C284.107 5.39442 286.304 6.37576 288.139 7.65576L286.027 12.7758C284.15 11.5811 282.144 10.6851 280.011 10.0878C277.878 9.44776 275.787 9.12776 273.739 9.12776C270.112 9.12776 267.382 9.78909 265.547 11.1118C263.755 12.4344 262.859 14.1411 262.859 16.2318C262.859 17.7678 263.371 19.0264 264.395 20.0078C265.419 20.9464 266.678 21.6931 268.171 22.2478C269.707 22.7598 271.776 23.3144 274.379 23.9118C277.75 24.7224 280.459 25.5331 282.507 26.3438C284.555 27.1544 286.304 28.3918 287.755 30.0558C289.248 31.7198 289.995 33.9598 289.995 36.7758C289.995 39.1224 289.355 41.2771 288.075 43.2398C286.795 45.1598 284.854 46.6958 282.251 47.8478C279.648 48.9571 276.448 49.5118 272.651 49.5118Z" fill="white"/>
<path d="M317.521 47.0158C316.625 47.7838 315.516 48.3811 314.193 48.8078C312.87 49.1918 311.505 49.3838 310.097 49.3838C306.684 49.3838 304.038 48.4664 302.161 46.6318C300.284 44.7971 299.345 42.1731 299.345 38.7598V20.1358H293.585V15.0798H299.345V7.65576H305.489V15.0798H315.217V20.1358H305.489V38.5038C305.489 40.3384 305.937 41.7464 306.833 42.7278C307.772 43.7091 309.094 44.1998 310.801 44.1998C312.678 44.1998 314.278 43.6664 315.601 42.5998L317.521 47.0158Z" fill="white"/>
<path d="M356.565 15.0798V48.9998H350.741V43.8798C349.504 45.6291 347.861 46.9944 345.813 47.9758C343.808 48.9144 341.61 49.3838 339.221 49.3838C334.698 49.3838 331.136 48.1464 328.533 45.6718C325.93 43.1544 324.629 39.4638 324.629 34.5998V15.0798H330.773V33.8958C330.773 37.1811 331.562 39.6771 333.141 41.3838C334.72 43.0478 336.981 43.8798 339.925 43.8798C343.168 43.8798 345.728 42.8984 347.605 40.9358C349.482 38.9731 350.421 36.1998 350.421 32.6158V15.0798H356.565Z" fill="white"/>
<path d="M400.262 1.51176V48.9998H394.374V43.6238C393.008 45.5011 391.28 46.9304 389.19 47.9118C387.099 48.8931 384.795 49.3838 382.278 49.3838C378.992 49.3838 376.048 48.6584 373.446 47.2078C370.843 45.7571 368.795 43.7304 367.302 41.1278C365.851 38.4824 365.126 35.4531 365.126 32.0398C365.126 28.6264 365.851 25.6184 367.302 23.0158C368.795 20.4131 370.843 18.3864 373.446 16.9358C376.048 15.4851 378.992 14.7598 382.278 14.7598C384.71 14.7598 386.95 15.2291 388.998 16.1678C391.046 17.0638 392.752 18.4078 394.118 20.1998V1.51176H400.262ZM382.79 44.0078C384.923 44.0078 386.864 43.5171 388.614 42.5358C390.363 41.5118 391.728 40.1038 392.71 38.3118C393.691 36.4771 394.182 34.3864 394.182 32.0398C394.182 29.6931 393.691 27.6238 392.71 25.8318C391.728 23.9971 390.363 22.5891 388.614 21.6078C386.864 20.6264 384.923 20.1358 382.79 20.1358C380.614 20.1358 378.651 20.6264 376.902 21.6078C375.195 22.5891 373.83 23.9971 372.806 25.8318C371.824 27.6238 371.334 29.6931 371.334 32.0398C371.334 34.3864 371.824 36.4771 372.806 38.3118C373.83 40.1038 375.195 41.5118 376.902 42.5358C378.651 43.5171 380.614 44.0078 382.79 44.0078Z" fill="white"/>
<path d="M411.887 15.0798H418.031V48.9998H411.887V15.0798ZM414.959 8.55176C413.764 8.55176 412.761 8.16776 411.951 7.39976C411.183 6.63176 410.799 5.69309 410.799 4.58376C410.799 3.47442 411.183 2.53576 411.951 1.76776C412.761 0.957091 413.764 0.551758 414.959 0.551758C416.153 0.551758 417.135 0.935758 417.903 1.70376C418.713 2.42909 419.119 3.34642 419.119 4.45576C419.119 5.60776 418.713 6.58909 417.903 7.39976C417.135 8.16776 416.153 8.55176 414.959 8.55176Z" fill="white"/>
<path d="M444.29 49.3838C440.919 49.3838 437.89 48.6371 435.202 47.1438C432.514 45.6504 430.402 43.6024 428.866 40.9998C427.372 38.3544 426.626 35.3678 426.626 32.0398C426.626 28.7118 427.372 25.7464 428.866 23.1438C430.402 20.4984 432.514 18.4504 435.202 16.9998C437.89 15.5064 440.919 14.7598 444.29 14.7598C447.66 14.7598 450.668 15.5064 453.314 16.9998C456.002 18.4504 458.092 20.4984 459.586 23.1438C461.122 25.7464 461.89 28.7118 461.89 32.0398C461.89 35.3678 461.122 38.3544 459.586 40.9998C458.092 43.6024 456.002 45.6504 453.314 47.1438C450.668 48.6371 447.66 49.3838 444.29 49.3838ZM444.29 44.0078C446.466 44.0078 448.407 43.5171 450.114 42.5358C451.863 41.5118 453.228 40.1038 454.21 38.3118C455.191 36.4771 455.682 34.3864 455.682 32.0398C455.682 29.6931 455.191 27.6238 454.21 25.8318C453.228 23.9971 451.863 22.5891 450.114 21.6078C448.407 20.6264 446.466 20.1358 444.29 20.1358C442.114 20.1358 440.151 20.6264 438.402 21.6078C436.695 22.5891 435.33 23.9971 434.306 25.8318C433.324 27.6238 432.834 29.6931 432.834 32.0398C432.834 34.3864 433.324 36.4771 434.306 38.3118C435.33 40.1038 436.695 41.5118 438.402 42.5358C440.151 43.5171 442.114 44.0078 444.29 44.0078Z" fill="white"/>
<path d="M221.8 90.0662C220.363 90.0662 219.05 89.7215 217.862 89.0322C216.689 88.3429 215.757 87.4042 215.068 86.2162C214.393 85.0282 214.056 83.7229 214.056 82.3002C214.056 80.8775 214.393 79.5722 215.068 78.3842C215.757 77.1962 216.696 76.2575 217.884 75.5682C219.072 74.8789 220.392 74.5342 221.844 74.5342C223.296 74.5342 224.609 74.8715 225.782 75.5462C226.97 76.2209 227.901 77.1522 228.576 78.3402C229.251 79.5135 229.588 80.8189 229.588 82.2562C229.588 83.6935 229.243 85.0135 228.554 86.2162C227.865 87.4042 226.926 88.3429 225.738 89.0322C224.55 89.7215 223.237 90.0662 221.8 90.0662ZM221.8 89.0762C223.061 89.0762 224.205 88.7755 225.232 88.1742C226.259 87.5729 227.065 86.7515 227.652 85.7102C228.253 84.6689 228.554 83.5175 228.554 82.2562C228.554 80.9949 228.261 79.8509 227.674 78.8242C227.102 77.7975 226.303 76.9909 225.276 76.4042C224.264 75.8175 223.12 75.5242 221.844 75.5242C220.583 75.5242 219.431 75.8249 218.39 76.4262C217.363 77.0275 216.557 77.8489 215.97 78.8902C215.383 79.9169 215.09 81.0535 215.09 82.3002C215.09 83.5469 215.383 84.6909 215.97 85.7322C216.557 86.7589 217.363 87.5729 218.39 88.1742C219.417 88.7755 220.553 89.0762 221.8 89.0762ZM222.042 86.8322C221.147 86.8322 220.348 86.6415 219.644 86.2602C218.94 85.8789 218.39 85.3435 217.994 84.6542C217.598 83.9649 217.4 83.1802 217.4 82.3002C217.4 81.4202 217.598 80.6355 217.994 79.9462C218.39 79.2569 218.94 78.7215 219.644 78.3402C220.348 77.9589 221.147 77.7682 222.042 77.7682C222.805 77.7682 223.501 77.9295 224.132 78.2522C224.763 78.5749 225.254 79.0075 225.606 79.5502L224.352 80.4522C223.824 79.6602 223.047 79.2642 222.02 79.2642C221.169 79.2642 220.465 79.5429 219.908 80.1002C219.351 80.6575 219.072 81.3909 219.072 82.3002C219.072 83.2095 219.351 83.9429 219.908 84.5002C220.465 85.0575 221.169 85.3362 222.02 85.3362C223.047 85.3362 223.824 84.9402 224.352 84.1482L225.606 85.0282C225.254 85.5855 224.763 86.0255 224.132 86.3482C223.501 86.6709 222.805 86.8322 222.042 86.8322Z" fill="#888888"/>
<path d="M248.427 88.0862V90.0002H237.361V88.5042L243.631 82.4542C244.394 81.7209 244.907 81.0902 245.171 80.5622C245.435 80.0195 245.567 79.4769 245.567 78.9342C245.567 78.1275 245.281 77.5042 244.709 77.0642C244.152 76.6095 243.345 76.3822 242.289 76.3822C240.588 76.3822 239.275 76.9395 238.351 78.0542L236.855 76.7562C237.456 76.0229 238.241 75.4509 239.209 75.0402C240.192 74.6295 241.284 74.4242 242.487 74.4242C244.1 74.4242 245.384 74.8129 246.337 75.5902C247.29 76.3529 247.767 77.3942 247.767 78.7142C247.767 79.5355 247.591 80.3129 247.239 81.0462C246.887 81.7795 246.22 82.6155 245.237 83.5542L240.529 88.0862H248.427Z" fill="#888888"/>
<path d="M256.463 90.1762C255.246 90.1762 254.161 89.8682 253.207 89.2522C252.269 88.6215 251.528 87.7122 250.985 86.5242C250.443 85.3362 250.171 83.9282 250.171 82.3002C250.171 80.6722 250.443 79.2642 250.985 78.0762C251.528 76.8882 252.269 75.9862 253.207 75.3702C254.161 74.7395 255.246 74.4242 256.463 74.4242C257.666 74.4242 258.737 74.7395 259.675 75.3702C260.629 75.9862 261.377 76.8882 261.919 78.0762C262.462 79.2642 262.733 80.6722 262.733 82.3002C262.733 83.9282 262.462 85.3362 261.919 86.5242C261.377 87.7122 260.629 88.6215 259.675 89.2522C258.737 89.8682 257.666 90.1762 256.463 90.1762ZM256.463 88.2182C257.695 88.2182 258.678 87.7122 259.411 86.7002C260.159 85.6882 260.533 84.2215 260.533 82.3002C260.533 80.3789 260.159 78.9122 259.411 77.9002C258.678 76.8882 257.695 76.3822 256.463 76.3822C255.217 76.3822 254.219 76.8882 253.471 77.9002C252.738 78.9122 252.371 80.3789 252.371 82.3002C252.371 84.2215 252.738 85.6882 253.471 86.7002C254.219 87.7122 255.217 88.2182 256.463 88.2182Z" fill="#888888"/>
<path d="M275.605 88.0862V90.0002H264.539V88.5042L270.809 82.4542C271.571 81.7209 272.085 81.0902 272.349 80.5622C272.613 80.0195 272.745 79.4769 272.745 78.9342C272.745 78.1275 272.459 77.5042 271.887 77.0642C271.329 76.6095 270.523 76.3822 269.467 76.3822C267.765 76.3822 266.453 76.9395 265.529 78.0542L264.033 76.7562C264.634 76.0229 265.419 75.4509 266.387 75.0402C267.369 74.6295 268.462 74.4242 269.665 74.4242C271.278 74.4242 272.561 74.8129 273.515 75.5902C274.468 76.3529 274.945 77.3942 274.945 78.7142C274.945 79.5355 274.769 80.3129 274.417 81.0462C274.065 81.7795 273.397 82.6155 272.415 83.5542L267.707 88.0862H275.605Z" fill="#888888"/>
<path d="M283.641 90.1762C282.424 90.1762 281.338 89.8682 280.385 89.2522C279.446 88.6215 278.706 87.7122 278.163 86.5242C277.62 85.3362 277.349 83.9282 277.349 82.3002C277.349 80.6722 277.62 79.2642 278.163 78.0762C278.706 76.8882 279.446 75.9862 280.385 75.3702C281.338 74.7395 282.424 74.4242 283.641 74.4242C284.844 74.4242 285.914 74.7395 286.853 75.3702C287.806 75.9862 288.554 76.8882 289.097 78.0762C289.64 79.2642 289.911 80.6722 289.911 82.3002C289.911 83.9282 289.64 85.3362 289.097 86.5242C288.554 87.7122 287.806 88.6215 286.853 89.2522C285.914 89.8682 284.844 90.1762 283.641 90.1762ZM283.641 88.2182C284.873 88.2182 285.856 87.7122 286.589 86.7002C287.337 85.6882 287.711 84.2215 287.711 82.3002C287.711 80.3789 287.337 78.9122 286.589 77.9002C285.856 76.8882 284.873 76.3822 283.641 76.3822C282.394 76.3822 281.397 76.8882 280.649 77.9002C279.916 78.9122 279.549 80.3789 279.549 82.3002C279.549 84.2215 279.916 85.6882 280.649 86.7002C281.397 87.7122 282.394 88.2182 283.641 88.2182Z" fill="#888888"/>
<path d="M293.239 87.1182C293.65 87.1182 293.987 87.2649 294.251 87.5582C294.53 87.8369 294.669 88.1889 294.669 88.6142C294.669 88.8342 294.64 89.0469 294.581 89.2522C294.537 89.4575 294.442 89.7729 294.295 90.1982L293.261 93.2562H291.875L292.689 89.9782C292.41 89.8755 292.183 89.7069 292.007 89.4722C291.846 89.2229 291.765 88.9369 291.765 88.6142C291.765 88.1742 291.904 87.8149 292.183 87.5362C292.462 87.2575 292.814 87.1182 293.239 87.1182Z" fill="#888888"/>
<path d="M317.288 74.6002L310.534 90.0002H308.356L301.58 74.6002H303.956L309.5 87.2502L315.088 74.6002H317.288Z" fill="#888888"/>
<path d="M324.718 78.2302C326.2 78.2302 327.373 78.6629 328.238 79.5282C329.118 80.3789 329.558 81.6329 329.558 83.2902V90.0002H327.446V83.5322C327.446 82.4029 327.175 81.5522 326.632 80.9802C326.09 80.4082 325.312 80.1222 324.3 80.1222C323.156 80.1222 322.254 80.4595 321.594 81.1342C320.934 81.7942 320.604 82.7475 320.604 83.9942V90.0002H318.492V78.3402H320.516V80.1002C320.942 79.4989 321.514 79.0369 322.232 78.7142C322.966 78.3915 323.794 78.2302 324.718 78.2302Z" fill="#888888"/>
<path d="M344.531 73.6762V90.0002H342.507V88.1522C342.038 88.7975 341.444 89.2889 340.725 89.6262C340.007 89.9635 339.215 90.1322 338.349 90.1322C337.22 90.1322 336.208 89.8829 335.313 89.3842C334.419 88.8855 333.715 88.1889 333.201 87.2942C332.703 86.3849 332.453 85.3435 332.453 84.1702C332.453 82.9969 332.703 81.9629 333.201 81.0682C333.715 80.1735 334.419 79.4769 335.313 78.9782C336.208 78.4795 337.22 78.2302 338.349 78.2302C339.185 78.2302 339.955 78.3915 340.659 78.7142C341.363 79.0222 341.95 79.4842 342.419 80.1002V73.6762H344.531ZM338.525 88.2842C339.259 88.2842 339.926 88.1155 340.527 87.7782C341.129 87.4262 341.598 86.9422 341.935 86.3262C342.273 85.6955 342.441 84.9769 342.441 84.1702C342.441 83.3635 342.273 82.6522 341.935 82.0362C341.598 81.4055 341.129 80.9215 340.527 80.5842C339.926 80.2469 339.259 80.0782 338.525 80.0782C337.777 80.0782 337.103 80.2469 336.501 80.5842C335.915 80.9215 335.445 81.4055 335.093 82.0362C334.756 82.6522 334.587 83.3635 334.587 84.1702C334.587 84.9769 334.756 85.6955 335.093 86.3262C335.445 86.9422 335.915 87.4262 336.501 87.7782C337.103 88.1155 337.777 88.2842 338.525 88.2842Z" fill="#888888"/>
<path d="M350.552 80.2982C350.918 79.6235 351.461 79.1102 352.18 78.7582C352.898 78.4062 353.771 78.2302 354.798 78.2302V80.2762C354.68 80.2615 354.519 80.2542 354.314 80.2542C353.17 80.2542 352.268 80.5989 351.608 81.2882C350.962 81.9629 350.64 82.9309 350.64 84.1922V90.0002H348.528V78.3402H350.552V80.2982Z" fill="#888888"/>
<path d="M367.831 84.2362C367.831 84.3975 367.816 84.6102 367.787 84.8742H358.327C358.459 85.9009 358.907 86.7295 359.669 87.3602C360.447 87.9762 361.407 88.2842 362.551 88.2842C363.944 88.2842 365.067 87.8149 365.917 86.8762L367.083 88.2402C366.555 88.8562 365.895 89.3255 365.103 89.6482C364.326 89.9709 363.453 90.1322 362.485 90.1322C361.253 90.1322 360.161 89.8829 359.207 89.3842C358.254 88.8709 357.513 88.1595 356.985 87.2502C356.472 86.3409 356.215 85.3142 356.215 84.1702C356.215 83.0409 356.464 82.0215 356.963 81.1122C357.477 80.2029 358.173 79.4989 359.053 79.0002C359.948 78.4869 360.952 78.2302 362.067 78.2302C363.182 78.2302 364.172 78.4869 365.037 79.0002C365.917 79.4989 366.599 80.2029 367.083 81.1122C367.582 82.0215 367.831 83.0629 367.831 84.2362ZM362.067 80.0122C361.055 80.0122 360.204 80.3202 359.515 80.9362C358.84 81.5522 358.445 82.3589 358.327 83.3562H365.807C365.69 82.3735 365.286 81.5742 364.597 80.9582C363.923 80.3275 363.079 80.0122 362.067 80.0122Z" fill="#888888"/>
<path d="M388.193 78.3402L383.837 90.0002H381.813L378.447 81.1562L375.037 90.0002H373.013L368.679 78.3402H370.681L374.069 87.6242L377.589 78.3402H379.371L382.825 87.6682L386.301 78.3402H388.193Z" fill="#888888"/>
<path d="M394.982 90.1762C393.823 90.1762 392.701 90.0002 391.616 89.6482C390.545 89.2815 389.702 88.8122 389.086 88.2402L389.9 86.5242C390.486 87.0522 391.234 87.4849 392.144 87.8222C393.068 88.1449 394.014 88.3062 394.982 88.3062C396.258 88.3062 397.211 88.0935 397.842 87.6682C398.472 87.2282 398.788 86.6489 398.788 85.9302C398.788 85.4022 398.612 84.9769 398.26 84.6542C397.922 84.3169 397.497 84.0602 396.984 83.8842C396.485 83.7082 395.774 83.5102 394.85 83.2902C393.691 83.0115 392.752 82.7329 392.034 82.4542C391.33 82.1755 390.721 81.7502 390.208 81.1782C389.709 80.5915 389.46 79.8069 389.46 78.8242C389.46 78.0029 389.672 77.2622 390.098 76.6022C390.538 75.9422 391.198 75.4142 392.078 75.0182C392.958 74.6222 394.05 74.4242 395.356 74.4242C396.265 74.4242 397.16 74.5415 398.04 74.7762C398.92 75.0109 399.675 75.3482 400.306 75.7882L399.58 77.5482C398.934 77.1375 398.245 76.8295 397.512 76.6242C396.778 76.4042 396.06 76.2942 395.356 76.2942C394.109 76.2942 393.17 76.5215 392.54 76.9762C391.924 77.4309 391.616 78.0175 391.616 78.7362C391.616 79.2642 391.792 79.6969 392.144 80.0342C392.496 80.3569 392.928 80.6135 393.442 80.8042C393.97 80.9802 394.681 81.1709 395.576 81.3762C396.734 81.6549 397.666 81.9335 398.37 82.2122C399.074 82.4909 399.675 82.9162 400.174 83.4882C400.687 84.0602 400.944 84.8302 400.944 85.7982C400.944 86.6049 400.724 87.3455 400.284 88.0202C399.844 88.6802 399.176 89.2082 398.282 89.6042C397.387 89.9855 396.287 90.1762 394.982 90.1762Z" fill="#888888"/>
<path d="M410.406 89.3182C410.098 89.5822 409.716 89.7875 409.262 89.9342C408.807 90.0662 408.338 90.1322 407.854 90.1322C406.68 90.1322 405.771 89.8169 405.126 89.1862C404.48 88.5555 404.158 87.6535 404.158 86.4802V80.0782H402.178V78.3402H404.158V75.7882H406.27V78.3402H409.614V80.0782H406.27V86.3922C406.27 87.0229 406.424 87.5069 406.732 87.8442C407.054 88.1815 407.509 88.3502 408.096 88.3502C408.741 88.3502 409.291 88.1669 409.746 87.8002L410.406 89.3182Z" fill="#888888"/>
<path d="M423.827 78.3402V90.0002H421.825V88.2402C421.4 88.8415 420.835 89.3109 420.131 89.6482C419.442 89.9709 418.687 90.1322 417.865 90.1322C416.311 90.1322 415.086 89.7069 414.191 88.8562C413.297 87.9909 412.849 86.7222 412.849 85.0502V78.3402H414.961V84.8082C414.961 85.9375 415.233 86.7955 415.775 87.3822C416.318 87.9542 417.095 88.2402 418.107 88.2402C419.222 88.2402 420.102 87.9029 420.747 87.2282C421.393 86.5535 421.715 85.6002 421.715 84.3682V78.3402H423.827Z" fill="#888888"/>
<path d="M438.848 73.6762V90.0002H436.824V88.1522C436.355 88.7975 435.761 89.2889 435.042 89.6262C434.323 89.9635 433.531 90.1322 432.666 90.1322C431.537 90.1322 430.525 89.8829 429.63 89.3842C428.735 88.8855 428.031 88.1889 427.518 87.2942C427.019 86.3849 426.77 85.3435 426.77 84.1702C426.77 82.9969 427.019 81.9629 427.518 81.0682C428.031 80.1735 428.735 79.4769 429.63 78.9782C430.525 78.4795 431.537 78.2302 432.666 78.2302C433.502 78.2302 434.272 78.3915 434.976 78.7142C435.68 79.0222 436.267 79.4842 436.736 80.1002V73.6762H438.848ZM432.842 88.2842C433.575 88.2842 434.243 88.1155 434.844 87.7782C435.445 87.4262 435.915 86.9422 436.252 86.3262C436.589 85.6955 436.758 84.9769 436.758 84.1702C436.758 83.3635 436.589 82.6522 436.252 82.0362C435.915 81.4055 435.445 80.9215 434.844 80.5842C434.243 80.2469 433.575 80.0782 432.842 80.0782C432.094 80.0782 431.419 80.2469 430.818 80.5842C430.231 80.9215 429.762 81.4055 429.41 82.0362C429.073 82.6522 428.904 83.3635 428.904 84.1702C428.904 84.9769 429.073 85.6955 429.41 86.3262C429.762 86.9422 430.231 87.4262 430.818 87.7782C431.419 88.1155 432.094 88.2842 432.842 88.2842Z" fill="#888888"/>
<path d="M442.844 78.3402H444.956V90.0002H442.844V78.3402ZM443.9 76.0962C443.489 76.0962 443.145 75.9642 442.866 75.7002C442.602 75.4362 442.47 75.1135 442.47 74.7322C442.47 74.3509 442.602 74.0282 442.866 73.7642C443.145 73.4855 443.489 73.3462 443.9 73.3462C444.311 73.3462 444.648 73.4782 444.912 73.7422C445.191 73.9915 445.33 74.3069 445.33 74.6882C445.33 75.0842 445.191 75.4215 444.912 75.7002C444.648 75.9642 444.311 76.0962 443.9 76.0962Z" fill="#888888"/>
<path d="M453.982 90.1322C452.824 90.1322 451.782 89.8755 450.858 89.3622C449.934 88.8489 449.208 88.1449 448.68 87.2502C448.167 86.3409 447.91 85.3142 447.91 84.1702C447.91 83.0262 448.167 82.0069 448.68 81.1122C449.208 80.2029 449.934 79.4989 450.858 79.0002C451.782 78.4869 452.824 78.2302 453.982 78.2302C455.141 78.2302 456.175 78.4869 457.084 79.0002C458.008 79.4989 458.727 80.2029 459.24 81.1122C459.768 82.0069 460.032 83.0262 460.032 84.1702C460.032 85.3142 459.768 86.3409 459.24 87.2502C458.727 88.1449 458.008 88.8489 457.084 89.3622C456.175 89.8755 455.141 90.1322 453.982 90.1322ZM453.982 88.2842C454.73 88.2842 455.398 88.1155 455.984 87.7782C456.586 87.4262 457.055 86.9422 457.392 86.3262C457.73 85.6955 457.898 84.9769 457.898 84.1702C457.898 83.3635 457.73 82.6522 457.392 82.0362C457.055 81.4055 456.586 80.9215 455.984 80.5842C455.398 80.2469 454.73 80.0782 453.982 80.0782C453.234 80.0782 452.56 80.2469 451.958 80.5842C451.372 80.9215 450.902 81.4055 450.55 82.0362C450.213 82.6522 450.044 83.3635 450.044 84.1702C450.044 84.9769 450.213 85.6955 450.55 86.3262C450.902 86.9422 451.372 87.4262 451.958 87.7782C452.56 88.1155 453.234 88.2842 453.982 88.2842Z" fill="#888888"/>
</svg>
