<svg width="258" height="82" viewBox="0 0 258 82" fill="none" xmlns="http://www.w3.org/2000/svg">
<path d="M183.459 32.2472C183.459 26.0845 183.459 20.1564 183.459 14.105C184.623 14.0328 185.689 14.0749 186.752 14.0679C187.83 14.0609 188.909 14.0659 190.139 14.0659C190.159 14.497 190.193 14.881 190.193 15.2639C190.196 20.1744 190.195 25.085 190.195 29.9945C190.195 38.1112 190.194 46.2288 190.197 54.3455C190.197 54.913 190.202 55.4814 190.241 56.0479C190.364 57.8284 191.172 58.7077 193.103 59.1688C193.53 59.2711 193.969 59.3343 194.555 59.4445C194.099 60.9594 193.649 62.4512 193.208 63.9139C189.294 64.3841 186.266 62.7209 184.471 59.0676C184.195 59.3473 183.969 59.5829 183.735 59.8135C181.699 61.8266 179.397 63.4999 176.368 64.1194C169.489 65.526 162.528 63.166 158.564 57.7392C156.582 55.0263 155.537 52.0186 155.233 48.8084C154.834 44.6017 155.468 40.5474 157.663 36.7527C158.86 34.6824 160.425 32.8788 162.425 31.376C167.809 27.3307 175.899 26.4865 182.285 31.363C182.614 31.6136 182.945 31.8592 183.459 32.2472ZM183.487 46.278C183.487 43.6403 183.473 41.0025 183.5 38.3648C183.505 37.8194 183.362 37.3693 182.898 37.0344C181.742 36.1993 180.636 35.29 179.389 34.5802C177.161 33.3099 174.653 32.9981 172.082 33.3891C167.917 34.0217 165.152 36.2835 163.441 39.6571C162.359 41.7905 161.989 44.0623 162 46.3883C162.012 49.0019 162.6 51.4933 164.069 53.7791C165.618 56.1902 167.817 57.9186 170.808 58.7357C175.819 60.1042 180.364 58.0209 183.118 55.298C183.49 54.931 183.491 54.525 183.49 54.0899C183.486 51.4863 183.487 48.8816 183.487 46.278Z" fill="black"/>
<path d="M41.3184 82C38.8638 82 36.4884 82 34.0293 82C22.6992 54.6974 11.3714 27.4038 0 0C2.8694 0 5.53647 0 8.27509 0C8.4204 0.332848 8.57578 0.667695 8.71327 1.00856C17.6188 22.9625 26.5333 44.9145 35.412 66.8785C36.171 68.7572 36.693 70.7122 37.3301 72.6311C37.4017 72.8467 37.5034 73.0542 37.6956 73.5164C38.8973 70.4967 39.4495 67.5321 40.8423 64.8713C43.1025 65.511 45.2922 66.1305 47.6284 66.7922C45.5359 71.8331 43.43 76.91 41.3184 82Z" fill="black"/>
<path d="M37.8823 59.7303C39.0884 57.9287 40.2331 56.2183 41.4313 54.4267C41.9209 54.7496 42.3301 55.0233 42.7425 55.2919C47.8576 58.6124 53.5237 59.647 59.6907 58.5472C61.3919 58.2435 62.9289 57.5958 64.3206 56.6474C67.9859 54.15 67.807 48.6991 64.6973 46.4895C63.7103 45.7877 62.6841 45.0889 61.5663 44.5826C59.5766 43.6813 57.5031 42.9284 55.4654 42.1123C53.1213 41.174 50.7561 40.2767 48.4467 39.2741C47.3825 38.8119 46.391 38.1914 45.4353 37.5597C42.216 35.4343 40.6712 32.5119 40.5002 28.9688C40.2521 23.8358 42.8252 20.2035 47.8654 17.9097C50.1502 16.869 52.6038 16.3026 55.1412 16.098C61.5484 15.5817 67.6818 16.5051 73.4832 19.0516C73.548 19.0796 73.6006 19.1308 73.7716 19.2491C72.9411 20.9775 72.0971 22.733 71.2241 24.5486C70.796 24.3611 70.4663 24.2207 70.1399 24.0744C66.1392 22.2808 61.9184 21.3013 57.4316 21.4737C55.9572 21.5299 54.4694 21.7585 53.0353 22.0793C52.0818 22.2918 51.1641 22.736 50.3123 23.1981C46.4637 25.2865 46.6984 30.4045 49.892 32.3174C51.3407 33.1846 52.8553 33.9927 54.4303 34.6533C56.4155 35.4865 58.5181 36.092 60.5245 36.889C62.5634 37.6991 64.5754 38.5733 66.5428 39.5147C67.5857 40.014 68.5503 40.6677 69.4759 41.3364C72.5867 43.5841 74.1707 46.5126 74.3171 50.1037C74.4993 54.5881 72.7723 58.2725 68.8007 61.0516C66.706 62.5184 64.296 63.4126 61.7195 63.8848C54.7187 65.1681 47.9414 64.5606 41.4705 61.7534C40.536 61.3484 39.6641 60.824 38.7732 60.3398C38.4949 60.1884 38.249 59.9839 37.8823 59.7303Z" fill="black"/>
<path d="M238.198 28.0234C244.043 28.1016 248.797 29.6335 252.607 33.1655C255.41 35.7651 257.01 38.9262 257.64 42.4813C258.357 46.5215 258.061 50.4917 256.226 54.2693C253.273 60.3448 248.018 63.6592 240.708 64.4061C237.659 64.7179 234.677 64.4152 231.801 63.4838C227.18 61.989 223.669 59.2841 221.56 55.3019C218.346 49.2375 218.331 43.0687 221.6 37.0374C224.376 31.9133 229.189 29.1292 235.409 28.257C236.471 28.1096 237.554 28.0755 238.198 28.0234ZM251.093 46.4925C251.147 43.7585 250.482 41.1759 248.857 38.853C246.613 35.6428 243.481 33.5996 239.136 33.4192C233.302 33.1775 229.096 35.6739 227.115 40.4892C226.49 42.008 226.22 43.5891 226.137 45.1942C225.956 48.7071 226.823 51.9785 229.243 54.7966C232.049 58.063 235.762 59.5939 240.382 59.0585C245.108 58.5101 248.239 56.107 249.967 52.176C250.77 50.3533 251.101 48.4485 251.093 46.4925Z" fill="black"/>
<path d="M139.52 59.1447C139.123 59.4635 138.826 59.7042 138.526 59.9428C135.829 62.0802 132.817 63.6733 129.225 64.2608C126.577 64.6939 123.955 64.6056 121.389 63.8607C117.193 62.6416 114.765 59.9438 113.605 56.2283C113.109 54.6402 112.989 53.0021 112.984 51.3649C112.969 44.1495 112.976 36.9341 112.978 29.7177C112.978 29.4881 113.002 29.2575 113.014 29.041C113.833 28.8124 118.206 28.7643 119.691 28.9798C119.691 29.3448 119.691 29.7348 119.691 30.1258C119.691 36.7737 119.662 43.4217 119.715 50.0686C119.726 51.4922 119.854 52.954 120.235 54.3295C121.125 57.5427 123.528 59.1277 127.211 59.1538C131.275 59.1828 134.741 57.8103 137.843 55.5425C138.392 55.1415 138.42 54.6723 138.419 54.1269C138.411 47.0118 138.413 39.8967 138.413 32.7805C138.413 31.5183 138.413 30.2551 138.413 28.9247C140.655 28.9247 142.796 28.9247 145.083 28.9247C145.095 29.2937 145.119 29.6786 145.119 30.0646C145.121 38.082 145.117 46.0995 145.128 54.1169C145.129 54.8147 145.166 55.5225 145.294 56.2093C145.653 58.1241 146.665 58.9983 148.789 59.3192C148.97 59.3462 149.153 59.3643 149.459 59.4014C149.141 60.9594 148.571 62.4201 148.139 64.0071C144.078 64.0633 140.986 62.8341 139.52 59.1447Z" fill="black"/>
<path d="M102.998 35.3421C99.4139 35.3421 95.9275 35.3421 92.3796 35.3421C92.3527 35.7201 92.3136 36.0118 92.3136 36.3025C92.3114 41.6792 92.2834 47.0569 92.3393 52.4337C92.3505 53.5184 92.5338 54.6423 92.8949 55.6759C93.665 57.8855 95.4781 59.0214 98.0636 59.1478C100.014 59.244 101.819 58.7748 103.565 58.056C104.065 57.8505 104.562 57.6409 105.111 57.4123C105.231 57.6499 105.334 57.8204 105.404 58.0008C105.931 59.3503 106.45 60.7027 106.979 62.0702C106.825 62.1955 106.733 62.3058 106.611 62.362C103.237 63.9189 99.7124 64.8333 95.8638 64.4022C91.4764 63.9109 88.4471 61.8266 86.7783 58.1713C85.8483 56.1331 85.59 53.9786 85.5912 51.791C85.5934 46.7141 85.5912 41.6381 85.5912 36.5612C85.5912 36.1993 85.5912 35.8374 85.5912 35.3431C83.331 35.3431 81.1602 35.3431 78.9302 35.3431C78.9302 33.5545 78.9302 31.8993 78.9302 30.1328C81.1691 30.1328 83.3869 30.1328 85.7096 30.1328C86.2004 26.4093 86.6777 22.7821 87.1572 19.1438C88.9133 19.1438 90.5385 19.1438 92.2812 19.1438C92.2812 22.7831 92.2812 26.3722 92.2812 30.0867C95.9096 30.0867 99.4228 30.0867 102.998 30.0867C102.998 31.8682 102.998 33.5215 102.998 35.3421Z" fill="black"/>
<path d="M210.133 63.6703C208.006 63.6703 205.868 63.6703 203.661 63.6703C203.661 52.0707 203.661 40.5303 203.661 28.9217C205.835 28.9217 207.978 28.9217 210.119 28.9217C210.344 29.6927 210.368 62.6998 210.133 63.6703Z" fill="black"/>
<path d="M69.3695 14.4159C66.8254 13.9537 64.431 13.5186 61.8892 13.0564C63.5569 8.70731 65.3979 4.39231 67.1507 0.00512695C69.8658 0.00512695 72.5273 0.00512695 75.3453 0.00512695C73.3343 4.85248 71.3581 9.61964 69.3695 14.4159Z" fill="black"/>
<path d="M52.1782 55.8373C49.624 55.5696 47.5706 54.544 45.4312 53.4372C46.8452 49.9593 48.2257 46.5637 49.6229 43.1269C51.9289 43.9671 54.1176 44.7651 56.4203 45.6042C55.004 49.02 53.6135 52.3755 52.1782 55.8373Z" fill="black"/>
<path d="M54.4014 31.4391C54.6082 30.9078 54.7736 30.4717 54.948 30.0396C55.6209 28.3813 56.3095 26.7271 56.9622 25.0629C57.1277 24.6418 57.3222 24.3681 57.8822 24.3761C59.9658 24.4062 62.0415 24.4814 64.0536 25.0418C64.2302 25.0909 64.4046 25.1471 64.5734 25.2132C64.636 25.2383 64.6807 25.3005 64.8059 25.4057C63.6456 28.2009 62.4719 31.0281 61.2602 33.9485C58.9072 33.2497 56.694 32.4427 54.4014 31.4391Z" fill="black"/>
<path d="M207.032 22.8492C204.33 22.8632 202.268 21.0496 202.252 18.6455C202.234 16.0549 204.02 14.4327 206.89 14.4327C209.564 14.4327 211.644 16.2965 211.633 18.6826C211.619 21.208 209.823 22.8352 207.032 22.8492Z" fill="black"/>
</svg>
