<svg width="169" height="53" viewBox="0 0 169 53" fill="none" xmlns="http://www.w3.org/2000/svg">
<path d="M120.173 20.8427C120.173 16.8595 120.173 13.0279 120.173 9.11664C120.935 9.06999 121.634 9.0972 122.33 9.09267C123.036 9.08813 123.742 9.09137 124.548 9.09137C124.562 9.37001 124.584 9.61819 124.584 9.86573C124.586 13.0396 124.585 16.2135 124.585 19.3867C124.585 24.6328 124.584 29.8796 124.587 35.1258C124.587 35.4926 124.589 35.86 124.615 36.2261C124.696 37.3769 125.225 37.9452 126.49 38.2433C126.769 38.3094 127.057 38.3502 127.441 38.4215C127.142 39.4006 126.848 40.3648 126.558 41.3102C123.995 41.6141 122.011 40.5391 120.835 38.1778C120.655 38.3586 120.507 38.5109 120.354 38.6599C119.02 39.9611 117.512 41.0426 115.528 41.4431C111.022 42.3522 106.462 40.8268 103.865 37.3192C102.567 35.5658 101.882 33.6218 101.683 31.5469C101.422 28.8279 101.838 26.2075 103.275 23.7548C104.059 22.4167 105.084 21.251 106.394 20.2796C109.921 17.665 115.22 17.1194 119.403 20.2712C119.619 20.4332 119.836 20.592 120.173 20.8427ZM120.191 29.9114C120.191 28.2065 120.182 26.5016 120.199 24.7968C120.203 24.4443 120.109 24.1533 119.805 23.9369C119.048 23.3971 118.323 22.8094 117.507 22.3506C116.047 21.5296 114.405 21.3281 112.72 21.5808C109.992 21.9897 108.181 23.4515 107.06 25.632C106.351 27.011 106.109 28.4793 106.116 29.9827C106.124 31.672 106.509 33.2822 107.471 34.7597C108.486 36.3181 109.926 37.4352 111.886 37.9634C115.168 38.8479 118.145 37.5013 119.95 35.7414C120.193 35.5042 120.193 35.2418 120.193 34.9606C120.19 33.2777 120.191 31.5942 120.191 29.9114Z" fill="black"/>
<path d="M27.0652 53C25.4573 53 23.9013 53 22.2905 53C14.8689 35.3532 7.44871 17.7122 0 0C1.87957 0 3.62661 0 5.42051 0C5.51569 0.215134 5.61747 0.431559 5.70753 0.651877C11.541 14.8416 17.3803 29.0301 23.1962 43.2263C23.6934 44.4407 24.0353 45.7042 24.4527 46.9445C24.4995 47.0838 24.5662 47.218 24.6921 47.5167C25.4792 45.5649 25.8409 43.6488 26.7533 41.929C28.2338 42.3425 29.6682 42.7429 31.1985 43.1706C29.8278 46.4287 28.4483 49.7101 27.0652 53Z" fill="black"/>
<path d="M24.8145 38.6062C25.6045 37.4417 26.3543 36.3362 27.1392 35.1783C27.4599 35.3869 27.7279 35.5638 27.9981 35.7375C31.3486 37.8837 35.0602 38.5524 39.0998 37.8415C40.2142 37.6452 41.2209 37.2266 42.1325 36.6136C44.5334 34.9994 44.4163 31.4763 42.3793 30.0481C41.7328 29.5945 41.0606 29.1429 40.3284 28.8156C39.0251 28.2331 37.6668 27.7464 36.332 27.219C34.7966 26.6125 33.2472 26.0325 31.7345 25.3845C31.0375 25.0858 30.388 24.6847 29.762 24.2764C27.6532 22.9027 26.6413 21.0138 26.5293 18.7238C26.3667 15.4061 28.0523 13.0584 31.3538 11.5758C32.8504 10.9032 34.4576 10.537 36.1197 10.4049C40.3167 10.0711 44.3343 10.6679 48.1344 12.3138C48.1769 12.332 48.2113 12.365 48.3233 12.4415C47.7793 13.5586 47.2265 14.6933 46.6546 15.8668C46.3742 15.7456 46.1582 15.6549 45.9444 15.5603C43.3238 14.401 40.559 13.7679 37.62 13.8794C36.6542 13.9157 35.6796 14.0634 34.7402 14.2708C34.1156 14.4082 33.5145 14.6952 32.9566 14.9939C30.4356 16.3437 30.5893 19.6517 32.6813 20.8881C33.6302 21.4486 34.6223 21.9709 35.654 22.3979C36.9544 22.9364 38.3317 23.3278 39.646 23.8429C40.9815 24.3665 42.2995 24.9316 43.5882 25.54C44.2713 25.8627 44.9032 26.2852 45.5095 26.7174C47.5472 28.1702 48.5847 30.063 48.6806 32.3841C48.8 35.2826 47.6687 37.664 45.0672 39.4602C43.6951 40.4082 42.1164 40.9862 40.4287 41.2914C35.8429 42.1209 31.4036 41.7282 27.1648 39.9138C26.5527 39.652 25.9816 39.3131 25.398 39.0001C25.2157 38.9023 25.0546 38.7701 24.8145 38.6062Z" fill="black"/>
<path d="M156.029 18.1127C159.857 18.1632 162.971 19.1533 165.467 21.4362C167.303 23.1165 168.351 25.1596 168.764 27.4574C169.233 30.0688 169.04 32.6348 167.838 35.0765C165.903 39.0033 162.461 41.1456 157.673 41.6283C155.676 41.8299 153.722 41.6342 151.838 41.0322C148.811 40.066 146.512 38.3177 145.13 35.7439C143.025 31.8242 143.015 27.8371 145.156 23.9388C146.975 20.6269 150.127 18.8274 154.202 18.2637C154.897 18.1684 155.607 18.1464 156.029 18.1127ZM164.475 30.05C164.511 28.2829 164.075 26.6137 163.011 25.1123C161.541 23.0374 159.489 21.7168 156.643 21.6002C152.822 21.444 150.066 23.0575 148.769 26.1698C148.36 27.1515 148.182 28.1734 148.128 29.2108C148.01 31.4814 148.578 33.5958 150.163 35.4173C152.001 37.5285 154.433 38.518 157.459 38.1719C160.555 37.8175 162.606 36.2642 163.738 33.7235C164.264 32.5454 164.481 31.3142 164.475 30.05Z" fill="black"/>
<path d="M91.391 38.2277C91.1311 38.4338 90.9363 38.5893 90.7401 38.7435C88.9733 40.125 87.0007 41.1547 84.6474 41.5344C82.9128 41.8143 81.1958 41.7573 79.5147 41.2759C76.766 40.4879 75.1756 38.7442 74.4156 36.3427C74.0913 35.3163 74.0122 34.2575 74.0093 33.1993C73.999 28.5357 74.0041 23.8721 74.0049 19.2078C74.0049 19.0594 74.021 18.9104 74.029 18.7704C74.565 18.6227 77.4294 18.5916 78.4025 18.7309C78.4025 18.9668 78.4025 19.2188 78.4025 19.4715C78.4025 23.7684 78.3834 28.0652 78.4178 32.3614C78.4252 33.2816 78.5094 34.2264 78.7591 35.1154C79.3419 37.1922 80.9161 38.2167 83.328 38.2335C85.9903 38.2523 88.2609 37.3652 90.2927 35.8995C90.6522 35.6403 90.6705 35.337 90.6698 34.9845C90.6647 30.3857 90.6662 25.7869 90.6662 21.1874C90.6662 20.3716 90.6662 19.5551 90.6662 18.6953C92.135 18.6953 93.5371 18.6953 95.0352 18.6953C95.0433 18.9337 95.0586 19.1825 95.0586 19.432C95.0601 24.614 95.0572 29.796 95.0645 34.978C95.0652 35.429 95.0894 35.8865 95.1736 36.3304C95.4086 37.568 96.0713 38.1331 97.4625 38.3405C97.5811 38.3579 97.7012 38.3696 97.9018 38.3936C97.6931 39.4006 97.3197 40.3447 97.0371 41.3705C94.377 41.4068 92.3517 40.6123 91.391 38.2277Z" fill="black"/>
<path d="M67.4672 22.8431C65.1198 22.8431 62.836 22.8431 60.512 22.8431C60.4944 23.0874 60.4688 23.2759 60.4688 23.4638C60.4674 26.939 60.4491 30.4149 60.4857 33.8901C60.493 34.5912 60.6131 35.3176 60.8496 35.9857C61.3541 37.4138 62.5417 38.148 64.2353 38.2297C65.513 38.2919 66.6955 37.9886 67.8392 37.524C68.1665 37.3912 68.4923 37.2557 68.8518 37.108C68.9302 37.2616 68.9975 37.3717 69.0437 37.4884C69.3885 38.3606 69.729 39.2347 70.0753 40.1186C69.9743 40.1996 69.9143 40.2708 69.8344 40.3071C67.6239 41.3135 65.3153 41.9044 62.7943 41.6258C59.9204 41.3083 57.9361 39.9611 56.8429 37.5985C56.2338 36.2811 56.0646 34.8886 56.0653 33.4747C56.0668 30.1933 56.0653 26.9125 56.0653 23.631C56.0653 23.3971 56.0653 23.1632 56.0653 22.8437C54.5848 22.8437 53.1629 22.8437 51.7021 22.8437C51.7021 21.6877 51.7021 20.6179 51.7021 19.4761C53.1688 19.4761 54.6214 19.4761 56.143 19.4761C56.4644 17.0694 56.7771 14.725 57.0912 12.3734C58.2415 12.3734 59.3061 12.3734 60.4476 12.3734C60.4476 14.7257 60.4476 17.0455 60.4476 19.4463C62.8243 19.4463 65.1256 19.4463 67.4672 19.4463C67.4672 20.5978 67.4672 21.6663 67.4672 22.8431Z" fill="black"/>
<path d="M137.645 41.1527C136.252 41.1527 134.851 41.1527 133.406 41.1527C133.406 33.6554 133.406 26.1964 133.406 18.6933C134.83 18.6933 136.234 18.6933 137.636 18.6933C137.784 19.1916 137.799 40.5254 137.645 41.1527Z" fill="black"/>
<path d="M45.4399 9.31759C43.7734 9.01886 42.2051 8.73763 40.54 8.4389C41.6325 5.62791 42.8384 2.83894 43.9865 0.00332642C45.765 0.00332642 47.5084 0.00332642 49.3543 0.00332642C48.0371 3.13637 46.7425 6.21759 45.4399 9.31759Z" fill="black"/>
<path d="M34.1789 36.09C32.5058 35.9169 31.1607 35.254 29.7593 34.5387C30.6855 32.2908 31.5898 30.096 32.505 27.8747C34.0156 28.4177 35.4492 28.9335 36.9576 29.4759C36.0299 31.6836 35.119 33.8524 34.1789 36.09Z" fill="black"/>
<path d="M35.6353 20.3204C35.7707 19.977 35.8791 19.6951 35.9933 19.4158C36.4341 18.344 36.8851 17.2748 37.3127 16.1992C37.4211 15.927 37.5485 15.7501 37.9153 15.7553C39.2802 15.7747 40.6399 15.8233 41.9578 16.1856C42.0735 16.2173 42.1877 16.2536 42.2983 16.2964C42.3393 16.3126 42.3686 16.3527 42.4506 16.4208C41.6906 18.2274 40.9218 20.0547 40.1281 21.9423C38.5868 21.4907 37.137 20.969 35.6353 20.3204Z" fill="black"/>
<path d="M135.614 14.7684C133.844 14.7774 132.493 13.6052 132.483 12.0513C132.471 10.3769 133.641 9.32846 135.521 9.32846C137.272 9.32846 138.635 10.5331 138.628 12.0753C138.619 13.7076 137.442 14.7593 135.614 14.7684Z" fill="black"/>
</svg>
